<svg xmlns="http://www.w3.org/2000/svg" viewBox="0 0 1000 180">
  <defs>
    <linearGradient id="a" x1="0" x2="0" y1="0" y2="1">
      <stop offset="0" stop-color="#9e9788"/>
      <stop offset="0.34" stop-color="#6a675f"/>
      <stop offset="1" stop-color="#2a2927"/>
    </linearGradient>
    <linearGradient id="b" x1="0" x2="0" y1="0" y2="1">
      <stop offset="0" stop-color="#4e4b45"/>
      <stop offset="1" stop-color="#1d1b19"/>
    </linearGradient>
  </defs>
  <path d="M34 18h130l18 18h636l18-18h130l18 18v108l-18 18H854l-18-18H164l-18 18H52l-18-18V36Z" fill="url(#a)"/>
  <path d="M58 42h110l14 14h636l14-14h110l14 14v68l-14 14H846l-14-14H168l-14 14H72l-14-14V56Z" fill="url(#b)"/>
  <path d="M90 58h96l18 18h592l18-18h96" fill="none" stroke="#cbc2a9" stroke-opacity=".55" stroke-width="8"/>
  <path d="M82 130h836" fill="none" stroke="#1a1713" stroke-width="8" stroke-opacity=".75"/>
  <circle cx="110" cy="90" r="9" fill="#d9d1b9"/>
  <circle cx="890" cy="90" r="9" fill="#d9d1b9"/>
</svg>
