<svg xmlns="http://www.w3.org/2000/svg" viewBox="0 0 1000 1000">
  <defs>
    <linearGradient id="a" x1="0" x2="0" y1="0" y2="1">
      <stop offset="0" stop-color="#98b8be"/>
      <stop offset=".34" stop-color="#4a676d"/>
      <stop offset="1" stop-color="#1a2528"/>
    </linearGradient>
  </defs>
  <path d="M80 54h840l60 60v772l-60 60H80l-60-60V114Z" fill="url(#a)"/>
  <path d="M120 94h760l60 60v692l-60 60H120l-60-60V154Z" fill="#0b1215" fill-opacity=".62"/>
  <path d="M140 120h80v40h-80ZM780 120h80v40h-80ZM140 840h80v40h-80ZM780 840h80v40h-80Z" fill="#c8f8ff" fill-opacity=".28"/>
  <circle cx="130" cy="130" r="12" fill="#d3fbff"/>
  <circle cx="870" cy="130" r="12" fill="#d3fbff"/>
  <circle cx="130" cy="870" r="12" fill="#d3fbff"/>
  <circle cx="870" cy="870" r="12" fill="#d3fbff"/>
</svg>
