<svg xmlns="http://www.w3.org/2000/svg" viewBox="0 0 1000 180">
  <defs>
    <linearGradient id="a" x1="0" x2="0" y1="0" y2="1">
      <stop offset="0" stop-color="#9ab7be"/>
      <stop offset=".35" stop-color="#48656a"/>
      <stop offset="1" stop-color="#1a2528"/>
    </linearGradient>
  </defs>
  <path d="M34 26h120l18 18h656l18-18h120l34 34v60l-34 34H846l-18-18H172l-18 18H34L0 120V60Z" fill="url(#a)"/>
  <path d="M58 50h96l14 14h664l14-14h96l22 22v36l-22 22h-96l-14-14H168l-14 14H58l-22-22V72Z" fill="#0e1619" fill-opacity=".56"/>
  <path d="M138 36h54l-54 54M808 36h54l-54 54" fill="none" stroke="#bff8ff" stroke-opacity=".42" stroke-width="10"/>
  <circle cx="84" cy="90" r="10" fill="#c7f7ff"/>
  <circle cx="916" cy="90" r="10" fill="#c7f7ff"/>
</svg>
