<svg xmlns="http://www.w3.org/2000/svg" viewBox="0 0 1200 280">
  <defs>
    <linearGradient id="a" x1="0" x2="0" y1="0" y2="1">
      <stop offset="0" stop-color="#f6e1b2"/>
      <stop offset=".4" stop-color="#a97730"/>
      <stop offset="1" stop-color="#45250f"/>
    </linearGradient>
  </defs>
  <path d="M102 60c72-34 166-52 498-52s426 18 498 52l18 18v84l-18 18c-72 34-166 52-498 52S174 214 102 180L84 162V78Z" fill="url(#a)"/>
  <path d="M154 88c58-24 140-38 446-38s388 14 446 38l12 12v40l-12 12c-58 24-140 38-446 38S212 176 154 152l-12-12v-40Z" fill="#291308" fill-opacity=".42"/>
  <path d="M134 140h932" fill="none" stroke="#fff2c6" stroke-opacity=".34" stroke-width="8"/>
  <path d="M600 30l24 30h-48Z" fill="#fbe9c0"/>
</svg>
