<svg xmlns="http://www.w3.org/2000/svg" viewBox="0 0 1000 180">
  <defs>
    <linearGradient id="a" x1="0" x2="0" y1="0" y2="1">
      <stop offset="0" stop-color="#f0d8a2"/>
      <stop offset=".4" stop-color="#9a6d2a"/>
      <stop offset="1" stop-color="#44260f"/>
    </linearGradient>
    <linearGradient id="b" x1="0" x2="0" y1="0" y2="1">
      <stop offset="0" stop-color="#6f4b19"/>
      <stop offset="1" stop-color="#241107"/>
    </linearGradient>
  </defs>
  <path d="M44 42h220c26-16 52-28 78-36h316c26 8 52 20 78 36h220l24 24v70l-24 24H44l-24-24V66Z" fill="url(#a)"/>
  <path d="M72 62h188c24-12 46-24 68-30h344c22 6 44 18 68 30h188l16 16v46l-16 16H72l-16-16V78Z" fill="url(#b)"/>
  <path d="M114 68h124l34 26h456l34-26h124" fill="none" stroke="#fff0c6" stroke-opacity=".55" stroke-width="8"/>
  <path d="M500 18l30 34h-60Z" fill="#f3dfb1" fill-opacity=".8"/>
</svg>
