<svg xmlns="http://www.w3.org/2000/svg" viewBox="0 0 1000 1000">
  <defs>
    <linearGradient id="a" x1="0" x2="0" y1="0" y2="1">
      <stop offset="0" stop-color="#f1d4b7"/>
      <stop offset=".36" stop-color="#9d4b5f"/>
      <stop offset="1" stop-color="#3a1220"/>
    </linearGradient>
  </defs>
  <rect x="38" y="38" width="924" height="924" rx="132" fill="url(#a)"/>
  <rect x="82" y="82" width="836" height="836" rx="104" fill="#210912" fill-opacity=".58"/>
  <path d="M108 176c38-44 76-66 114-66s76 22 114 66c38-44 76-66 114-66s76 22 114 66c38-44 76-66 114-66s76 22 114 66" fill="none" stroke="#f9e0b5" stroke-opacity=".22" stroke-width="18"/>
  <path d="M184 866c26-30 52-46 78-46s52 16 78 46c26-30 52-46 78-46s52 16 78 46c26-30 52-46 78-46s52 16 78 46" fill="none" stroke="#f9e0b5" stroke-opacity=".18" stroke-width="14"/>
</svg>
