<svg xmlns="http://www.w3.org/2000/svg" viewBox="0 0 1200 280">
  <defs>
    <linearGradient id="a" x1="0" x2="0" y1="0" y2="1">
      <stop offset="0" stop-color="#ffd7bb"/>
      <stop offset=".38" stop-color="#9b4c61"/>
      <stop offset="1" stop-color="#39111f"/>
    </linearGradient>
  </defs>
  <path d="M70 56h1060l26 26v98l-26 26H70l-26-26V82Z" fill="url(#a)"/>
  <path d="M124 18c26 16 46 40 60 72H70L44 64ZM1076 18c-26 16-46 40-60 72h114l26-26Z" fill="#f8d8ae" fill-opacity=".38"/>
  <path d="M114 84h972v120H114Z" fill="#2a0d16" fill-opacity=".42"/>
  <path d="M104 222c38-26 82-38 132-38s94 12 132 38c38-26 82-38 132-38s94 12 132 38c38-26 82-38 132-38s94 12 132 38" fill="#2a0d16" fill-opacity=".4"/>
</svg>
