<svg xmlns="http://www.w3.org/2000/svg" viewBox="0 0 1000 180">
  <defs>
    <linearGradient id="a" x1="0" x2="0" y1="0" y2="1">
      <stop offset="0" stop-color="#f0d1b6"/>
      <stop offset=".38" stop-color="#9d4d60"/>
      <stop offset="1" stop-color="#3e1320"/>
    </linearGradient>
  </defs>
  <path d="M38 34h924l18 18v92l-18 18H38l-18-18V52Z" fill="url(#a)"/>
  <path d="M78 20h844v24H78ZM78 136h844v24H78Z" fill="#f6d9a9" fill-opacity=".26"/>
  <path d="M94 162c20-24 44-36 72-36s52 12 72 36c20-24 44-36 72-36s52 12 72 36c20-24 44-36 72-36s52 12 72 36c20-24 44-36 72-36s52 12 72 36c20-24 44-36 72-36s52 12 72 36" fill="#2d0e17" fill-opacity=".34"/>
  <circle cx="92" cy="90" r="10" fill="#ffe2b5"/>
  <circle cx="908" cy="90" r="10" fill="#ffe2b5"/>
</svg>
